# xmcd CD database file
#
# Track frame offsets:
#	182
#	38892
#	53782
#	80627
#	104835
#	133482
#	163982
#
# Disc length: 2571 seconds
#
# Revision: 0
# Processed by: cddbd v1.4PL0 Copyright (c) Steve Scherf et al.
# Submitted via: CDex 1.50Beta5
#
DISCID=690a0907
DTITLE=Stan Levey - This Time The Drums On Me
DYEAR=1956
DGENRE=Jazz
TTITLE0=Diggin' For Diz
TTITLE1=Ruby My Dear
TTITLE2=Tune Up
TTITLE3=La Chaloupee (from Tales Of Hoffman)
TTITLE4=Day In Day Out
TTITLE5=Stanley The Steamer
TTITLE6=This Time the Drum's On Me
EXTD=YEAR: 1956
EXTT0=
EXTT1=
EXTT2=
EXTT3=
EXTT4=
EXTT5=
EXTT6=
PLAYORDER=
